# xmcd
#
# Track frame offsets: 
#        150
#        13001
#        22289
#        37841
#        51006
#        62357
#        72736
#        88199
#        103442
#        116529
#        129608
#        142567
#        158048
#        170506
#        187591
#        200018
#
# Disc length: 2972 seconds
#
# Revision: 1
# Processed by: cddbd v1.5.2PL0 Copyright (c) Steve Scherf et al.
# Submitted via: ExactAudioCopy v0.90b4
#
DISCID=da0b9a10
DTITLE=Ray Charles - The Genius At His Best [CD7] - What'd I Say
DYEAR=2011
DGENRE=Blues
TTITLE0=My Bonnie
TTITLE1=Tell All The World About You
TTITLE2=(Night Time Is) The Right Time
TTITLE3=I Had A Dream
TTITLE4=You Be My Baby
TTITLE5=Yes Indeed
TTITLE6=Tell Me You'll Wait For Me
TTITLE7=You Won't Let Me Go
TTITLE8=Let The Good Times Roll
TTITLE9=Alexander's Ragtime Band
TTITLE10=When Your Lover Has Gone
TTITLE11=Two Years Of Torture
TTITLE12=It Had To Be You
TTITLE13=Don't Let The Sun Catch You Cryin'
TTITLE14=Tell Me How Do You Feel
TTITLE15=What'd I Say
EXTD=
EXTT0=
EXTT1=
EXTT2=
EXTT3=
EXTT4=
EXTT5=
EXTT6=
EXTT7=
EXTT8=
EXTT9=
EXTT10=
EXTT11=
EXTT12=
EXTT13=
EXTT14=
EXTT15=
PLAYORDER=
